<?xml version="1.0" encoding="UTF-8" standalone="no"?>
<!-- Created with Inkscape (http://www.inkscape.org/) -->

<svg
   xmlns:dc="http://purl.org/dc/elements/1.1/"
   xmlns:cc="http://creativecommons.org/ns#"
   xmlns:rdf="http://www.w3.org/1999/02/22-rdf-syntax-ns#"
   xmlns:svg="http://www.w3.org/2000/svg"
   xmlns="http://www.w3.org/2000/svg"
   xmlns:sodipodi="http://sodipodi.sourceforge.net/DTD/sodipodi-0.dtd"
   xmlns:inkscape="http://www.inkscape.org/namespaces/inkscape"
   width="310.71429"
   height="310.71432"
   id="svg2"
   version="1.1"
   inkscape:version="0.48.2 r9819"
   sodipodi:docname="nend-viewer.svg"
   inkscape:export-filename="/Users/ishikura/Desktop/nend-viewer.png"
   inkscape:export-xdpi="74.150002"
   inkscape:export-ydpi="74.150002">
  <defs
     id="defs4" />
  <sodipodi:namedview
     id="base"
     pagecolor="#ffffff"
     bordercolor="#666666"
     borderopacity="1.0"
     inkscape:pageopacity="0.0"
     inkscape:pageshadow="2"
     inkscape:zoom="0.7"
     inkscape:cx="463.76065"
     inkscape:cy="136.21892"
     inkscape:document-units="px"
     inkscape:current-layer="text2992"
     showgrid="true"
     inkscape:snap-global="false"
     inkscape:window-width="1280"
     inkscape:window-height="752"
     inkscape:window-x="0"
     inkscape:window-y="0"
     inkscape:window-maximized="1"
     fit-margin-top="0"
     fit-margin-left="0"
     fit-margin-right="0"
     fit-margin-bottom="0">
    <inkscape:grid
       type="xygrid"
       id="grid3767"
       empspacing="5"
       visible="true"
       enabled="true"
       snapvisiblegridlinesonly="true" />
  </sodipodi:namedview>
  <metadata
     id="metadata7">
    <rdf:RDF>
      <cc:Work
         rdf:about="">
        <dc:format>image/svg+xml</dc:format>
        <dc:type
           rdf:resource="http://purl.org/dc/dcmitype/StillImage" />
        <dc:title></dc:title>
      </cc:Work>
    </rdf:RDF>
  </metadata>
  <g
     inkscape:label="Layer 1"
     inkscape:groupmode="layer"
     id="layer1"
     transform="translate(-134.71443,-2641.3724)">
    <g
       transform="matrix(5.5341884,0,0,5.5341884,-1020.9729,1809.2057)"
       style="font-size:40px;font-style:normal;font-weight:normal;line-height:125%;letter-spacing:0px;word-spacing:0px;fill:#000000;fill-opacity:1;stroke:none;font-family:Sans"
       id="text2985">
      <g
         transform="matrix(2.3398584,0,0,2.0954248,-156.33498,-270.19166)"
         style="fill:#0691ff;fill-opacity:1;font-family:Sans"
         id="text2992">
        <rect
           style="fill:#38a7ff;fill-opacity:1;fill-rule:nonzero;stroke:none"
           id="rect3803"
           width="23.994833"
           height="26.793858"
           x="156.06152"
           y="200.70393"
           ry="4.434845"
           inkscape:export-filename="/Users/ishikura/Desktop/app.png"
           inkscape:export-xdpi="20.855169"
           inkscape:export-ydpi="20.855169" />
        <path
           d="m 176.63886,216.23149 0,7.51174 -3.7482,0 0,-7.57934 c -2e-5,-2.0703 -0.80859,-4.13261 -1.61587,-5.16127 -0.80731,-1.02863 -1.85223,-1.55219 -3.62958,-1.55219 -1.77734,0 -2.42134,0.56429 -3.28351,1.68766 -0.86217,1.12337 -1.19428,2.9232 -1.19428,5.05859 l 0,7.54655 -3.76773,0 0,-18.77061 3.61328,0 0,2.70858 c 0.95276,-1.10694 2.07845,-2.45421 4.68741,-2.48082 2.60896,-0.0266 4.87787,1.2216 6.16696,2.78408 1.28904,1.5495 2.77149,3.99431 2.77152,8.24703"
           id="path2997"
           inkscape:connector-curvature="0"
           style="fill:#ffffff;fill-opacity:1"
           sodipodi:nodetypes="ccccczzsccccczcc" />
        <g
           id="g3798"
           transform="translate(2.592545,-0.24638027)">
          <g
             id="g2991">
            <path
               style="fill:#000000;stroke:#000000;stroke-width:0.08160472px;stroke-linecap:butt;stroke-linejoin:miter;stroke-opacity:1"
               d="m 160.60675,212.16061 6.89506,0 c 0,0 -0.39578,1.64633 -1.06767,2.56918 -0.69549,0.95524 -1.67894,1.18812 -2.35228,1.18812 -0.60745,0 -1.63733,-0.4523 -2.30542,-1.30848 -0.78793,-1.00975 -1.16969,-2.44882 -1.16969,-2.44882 z"
               id="path3788"
               inkscape:connector-curvature="0"
               sodipodi:nodetypes="ccsssc" />
            <path
               sodipodi:nodetypes="ccsssc"
               inkscape:connector-curvature="0"
               id="path3792"
               d="m 167.75004,212.16061 6.89506,0 c 0,0 -0.39578,1.64633 -1.06767,2.56918 -0.69549,0.95524 -1.67894,1.18812 -2.35228,1.18812 -0.60745,0 -1.63733,-0.4523 -2.30542,-1.30848 -0.78793,-1.00975 -1.16969,-2.44882 -1.16969,-2.44882 z"
               style="fill:#000000;stroke:#000000;stroke-width:0.08160472px;stroke-linecap:butt;stroke-linejoin:miter;stroke-opacity:1" />
            <rect
               style="fill:#000000;fill-opacity:1;fill-rule:nonzero;stroke:none"
               id="rect3794"
               width="10.756304"
               height="0.86233097"
               x="158.37964"
               y="212.11443" />
          </g>
        </g>
      </g>
    </g>
  </g>
</svg>
